<?xml version="1.0" encoding="UTF-8" standalone="no"?>
<!-- Created with Inkscape (http://www.inkscape.org/) -->

<svg
   xmlns:dc="http://purl.org/dc/elements/1.1/"
   xmlns:cc="http://creativecommons.org/ns#"
   xmlns:rdf="http://www.w3.org/1999/02/22-rdf-syntax-ns#"
   xmlns:svg="http://www.w3.org/2000/svg"
   xmlns="http://www.w3.org/2000/svg"
   xmlns:sodipodi="http://sodipodi.sourceforge.net/DTD/sodipodi-0.dtd"
   xmlns:inkscape="http://www.inkscape.org/namespaces/inkscape"
   width="995.42017"
   height="920"
   id="svg2987"
   version="1.1"
   inkscape:version="0.48.3.1 r9886"
   sodipodi:docname="anonymous_.svg">
  <defs
     id="defs2989" />
  <sodipodi:namedview
     id="base"
     pagecolor="#ffffff"
     bordercolor="#666666"
     borderopacity="1.0"
     inkscape:pageopacity="0.0"
     inkscape:pageshadow="2"
     inkscape:zoom="0.49497475"
     inkscape:cx="569.26511"
     inkscape:cy="581.34163"
     inkscape:document-units="px"
     inkscape:current-layer="layer1"
     showgrid="true"
     fit-margin-top="0"
     fit-margin-left="0"
     fit-margin-right="0"
     fit-margin-bottom="0"
     inkscape:window-width="1440"
     inkscape:window-height="851"
     inkscape:window-x="0"
     inkscape:window-y="0"
     inkscape:window-maximized="1">
    <inkscape:grid
       type="xygrid"
       id="grid3022"
       empspacing="5"
       visible="true"
       enabled="true"
       snapvisiblegridlinesonly="true"
       originx="115.12656px"
       originy="-83.738843px" />
  </sodipodi:namedview>
  <metadata
     id="metadata2992">
    <rdf:RDF>
      <cc:Work
         rdf:about="">
        <dc:format>image/svg+xml</dc:format>
        <dc:type
           rdf:resource="http://purl.org/dc/dcmitype/StillImage" />
        <dc:title />
      </cc:Work>
    </rdf:RDF>
  </metadata>
  <g
     inkscape:label="Layer 1"
     inkscape:groupmode="layer"
     id="layer1"
     transform="translate(115.12656,-48.62333)">
    <path
       sodipodi:type="arc"
       style="fill:#000080;stroke:#33e4d2;stroke-opacity:0.37610623"
       id="path2997"
       sodipodi:cx="395.71429"
       sodipodi:cy="482.36218"
       sodipodi:rx="338.57144"
       sodipodi:ry="307.14285"
       d="m 734.28574,482.36218 a 338.57144,307.14285 0 1 1 -0.0161,-2.99868 l -338.55531,2.99868 z"
       sodipodi:start="0"
       sodipodi:end="6.273422"
       transform="matrix(1.4700297,0,0,1.4976745,-199.12825,-213.79819)" />
    <path
       sodipodi:type="arc"
       style="fill:#f2f2f2;stroke:#339fd2;stroke-opacity:0.37610623"
       id="path3024"
       sodipodi:cx="-40"
       sodipodi:cy="452.36218"
       sodipodi:rx="360"
       sodipodi:ry="320"
       d="m 320,452.36218 a 360,320 0 1 1 -0.0172,-3.12421 L -40,452.36218 z"
       sodipodi:start="0"
       sodipodi:end="6.273422"
       transform="matrix(1.3680555,0,0,1.4140625,437.22222,-129.80622)" />
    <g
       transform="matrix(1.0868771,0,0,0.87955462,-282.55301,198.53173)"
       id="Capa_x0020_1"
       style="fill:#000080;stroke:#339fd2;stroke-opacity:0.37610623">
      <path
         inkscape:connector-curvature="0"
         d="m 610,463.3 c 12.3,0 22.3,17.9 28.8,26.7 9.4,12.4 15.5,19.3 22.7,32.7 h -99 c 3.1,-11.5 39.3,-59.4 47.5,-59.4 z m -316.7,-99 c 4.9,58.7 83.4,186.8 127.7,232.7 17.7,18.5 25.5,32.9 42.6,44.4 -3,-11.4 -9.9,-16.8 -16.7,-27 -7,-10.3 -12.6,-18.8 -19,-28.5 -13.3,-19.9 -24.1,-37.4 -35.6,-59.4 21.1,5.6 37.1,39.6 87.2,39.6 v -3.9 C 436,562.2 379.6,505 356.7,459.3 l -23.8,-55.5 c 15.2,4.1 12.4,6.4 20.6,19 5.8,8.9 10.2,14.7 15.9,23.7 54.3,85.7 40.6,72.2 165.4,72.2 v 3.9 c -20.5,0 -8.5,-0.6 -11.8,7.9 42.9,10 134.8,10.2 178.1,0 -3.3,-8.9 8.2,-7.9 -11.8,-7.9 v -3.9 c 132.1,0 108.7,16.4 181.3,-95.8 8.2,-12.6 5.5,-15 20.6,-19 -4.1,8.6 -5.6,15.3 -10.5,25.2 -13.9,28.2 -28.7,68.7 -59.1,91.3 -10,7.4 -11.1,10.3 -22.1,17.4 C 788,545 760.9,562 744.8,562 v 3.9 c 44.1,0 63.4,-27.6 87.2,-43.5 -3.9,16.8 -40.9,72.9 -53.1,89.4 -7.9,10.8 -14.6,15.6 -18.2,29.3 8.8,-5.9 44.9,-46.8 53.1,-57.8 32.1,-42.9 39.7,-48.7 68.4,-97.9 44,-75.5 33.8,-86.1 48.8,-117.5 -6.4,1.7 -65.9,60 -164.6,-1.7 -40.8,-25.5 -41.8,7.7 9.7,25.9 15.2,5.3 47.6,14.9 67.9,15.3 -16.1,24 -31.1,38.5 -42,53.1 -5.8,7.6 -9.1,11.7 -13.5,18.2 -25.3,0 -67.9,-1.2 -86.9,-8.2 -14.6,-5.3 -32.3,-29 -39.9,-43.4 -67.6,15.8 -35.2,14.9 -99,0 -34,50.8 -44.4,51.5 -126.7,51.5 -7,-10.5 -19.4,-24.4 -28.8,-34.6 L 380.5,407.3 C 409,406.9 494.8,383 485.1,362 473.9,338 468.3,381 367.6,394.9 326.7,400.5 302.9,370.3 293.3,364 v 0.3 z m 463.3,277.2 1.2,1.2 c -0.1,-0.2 -0.7,-1.5 -1.2,-1.2 z m -293,3.9 c 0.5,0.5 1.2,-1.7 1.2,-1.2 0,0.2 0.5,-0.5 0.5,-0.5 l -1.7,1.7 z M 697.2,47.5 C 720.9,42 752.8,27.6 784.4,27.6 v 3.9 c -27.1,0 -118.9,45.6 -118.9,83.1 10.5,5 4.2,3.6 19.9,3.9 -5.2,22.3 -19.3,47.9 -19.9,71.3 12.3,-8.2 47.8,-56.2 75.2,-75.3 C 835.8,48.4 887,84.5 926.9,87.8 885.8,24.6 880.2,-0.3 804.1,-0.3 c -24.3,0 -43.2,7.7 -59.4,15.8 -13.9,7 -39.1,20.3 -47.5,31.7 v 0.3 z M 309.1,87 c 34.4,-2.9 84.7,-38.7 173.6,28.4 38.7,29.1 43.2,42.3 64.4,66.3 5.3,6.1 2.6,5.2 11.4,8.3 -2.1,-25.6 -14.4,-47.9 -19.9,-71.3 70.6,-1.5 -62.6,-87.2 -99,-87.2 v -3.9 c 18,0 70.6,13.8 83.1,19.9 C 514.5,25 445.7,0 419.8,0 369.4,6.1 335,22.4 308.9,87.2 l 0.2,-0.2 z m 594,138.6 c 17,3.9 20.9,12 35.6,15.8 -8,-12.1 -15.9,-15.8 -27.7,-23.8 7,-10.3 14.6,-16.7 15.8,-31.7 -6.7,4.9 -27.4,48.2 -57.8,6.4 -7.7,-10.6 -10.9,-14.7 -20.3,-23.2 -16.2,-14.9 -38.7,-18.6 -68.4,-18.6 v 15.8 c 22.4,0 38.7,-0.8 57.2,14.3 47.2,38.2 9.9,53.1 -57.2,53.1 v 19.9 c 75.2,0 65.3,-19.9 102.9,-19.9 29.7,0 41.8,15.9 59.4,27.7 -4.4,-16.5 -13.3,-18.2 -30.5,-29 l -9.2,-6.7 h 0.2 z M 784.2,174 c -33.4,0 -46.7,1.2 -71.3,19.9 -4.4,-3.2 -12.1,-3.2 22,-17.6 12.7,-5.3 20.2,-7.1 33.4,-10.2 v -11.8 c -98.8,2.3 -127,95.1 0,95.1 v -15.8 c -17.1,-0.5 -37.3,-7.9 -51.5,-7.9 v -3.9 c 23.2,0 88.1,22 138.6,-11.8 -13.2,-25 -41.2,-35.6 -71.3,-35.6 l 0.1,-0.4 z m -502.9,87.2 c 32.7,-22 26.5,-27.7 67.3,-27.7 23.3,0 21.4,19.9 95.1,19.9 v -19.9 c -17.1,0 -29.6,-2.1 -46.7,-4.9 -72,-10.8 -13.2,-62.5 46.7,-62.5 v -15.8 c -96.6,0 -76.9,59.4 -118.9,59.4 -13.9,0 -21.4,-20.2 -31.7,-27.7 4.7,20 10.6,22 19.9,35.6 -11.8,7.9 -19.6,11.7 -27.7,23.8 9.6,-2.6 10.8,-3.6 21.1,-10.6 7,-4.7 3,-2 6.7,-5.2 8.8,6.4 5.9,0.8 -15.9,15.8 -10,6.8 -12.3,7.1 -15.8,19.9 v -0.1 z m 87.4,-52.6 c 2.7,7.9 71.6,22.1 99.6,17.9 8.2,-1.2 35,-4.9 38.7,-4.9 v 3.9 c -14.3,0 -34.4,7.6 -51.5,7.9 v 15.8 c 26.5,0 62.5,-8.2 80,-26.8 l 7.1,-8.8 c -5.5,-23.2 -9.9,-30.9 -29.3,-42.1 -11.1,-6.4 -42.5,-17 -57.9,-17.3 V 166 c 16.5,3.8 42.3,3.9 51.2,24.1 -21.4,-13.8 -31.4,-16.1 -67,-16.1 -44.4,0 -73.8,26.5 -71,34.4 v 0.2 z m 126.4,167.5 c 0,16.8 1.2,19.9 11.8,27.7 -6.8,-29.6 -7.7,-30.2 16.8,-54.4 10.2,-10 15.9,-20.8 30.6,-24.7 0,48.8 -25.3,102.9 63.4,102.9 75.2,0 51.5,-75.5 51.5,-102.9 13.2,3.5 51.5,40.8 51.5,55.5 0,14.9 -2.6,7.4 -3.9,23.8 39.1,-28.7 -21.5,-74.4 -39.6,-114.8 -7.9,-17.4 -11.7,-29.6 -16.1,-51.2 -9.7,-47.9 5.6,-47.2 -11.5,-59.7 0,30 -3.9,43.1 -3.9,71.3 0,54.4 7.9,97.3 7.9,150.5 -29,19.4 -89.6,18.3 -86.4,-18.8 0.2,-2.1 4.5,-24.1 5.8,-30.2 l 5.8,-101.6 c -0.5,-21.8 -4.1,-21.7 -4.1,-71.1 -11.2,8.3 -8,3.2 -8,23.7 -0.2,50.5 -17,89.8 -46.2,128 -9.1,11.8 -24.9,28.7 -24.9,46.4 l -0.5,-0.4 z m 91.1,241.6 c 0,31.1 -3.8,27.6 -7.1,48.2 -2.9,18 5.6,100.1 23,126 H 622 c 11.1,-16.4 11.8,-25.6 15.5,-47.9 12.3,-77.3 8,-53.4 -0.6,-113.6 -3.6,-25.3 11.7,-24.9 17,-44.4 h -83.1 c 3.8,14.4 15.8,22 15.8,31.7 h -0.4 z m 79.2,-190.2 c 19.6,-4.5 26.7,-1.1 31.7,-19.9 -8.3,-7 -20,-2 -25.5,2.3 -9.3,7 -5.8,-0.1 -6.2,17.6 z m -106.9,0 c -1.7,-19.4 -11.1,-23.3 -31.7,-23.8 1.8,22.6 11.4,19.1 31.7,23.8 z"
         id="path4"
         style="fill:#000080;stroke:#339fd2;stroke-opacity:0.37610623" />
    </g>
    <path
       style="fill:#000000;stroke:#339fd2;stroke-width:3.10571432;stroke-miterlimit:4;stroke-opacity:0.37610623;stroke-dasharray:none"
       d="m 412.04402,292.90307 c -45.88089,-46.7417 -113.3054,-78.30709 -167.26601,-78.30709 -11.39611,0 -30.79759,1.92835 -43.1144,4.28523 -12.31681,2.35687 -23.95797,4.28544 -25.86926,4.28571 -4.67909,6.6e-4 4.82252,-15.85696 19.47587,-32.50404 22.80037,-25.90259 73.91358,-42.60669 111.41984,-36.41267 26.68318,4.40664 61.67803,15.90358 75.4365,24.78335 13.00899,8.39605 14.05178,8.38575 -25.71429,0.25385 -32.89817,-6.72745 -47.14557,-7.9134 -47.12269,-3.92248 0.0114,1.9929 8.91731,5.66322 20.55291,8.47032 37.7011,9.09544 107.99836,48.48951 107.99836,60.52149 0,4.30888 -6.04453,7.3821 -14.5194,7.3821 -7.41137,0 -6.94155,4.49113 3.09082,29.54579 8.61161,21.50647 10.47614,30.45421 6.34604,30.45421 -1.22397,0 -10.5454,-8.4761 -20.71429,-18.83577 z"
       id="path3772"
       inkscape:connector-curvature="0"
       transform="translate(-115.12656,48.62333)" />
    <path
       style="fill:#000000;stroke:#339fd2;stroke-width:3.10571432;stroke-miterlimit:4;stroke-opacity:0.37610623;stroke-dasharray:none"
       d="m 560.69799,304.43937 c 0,-2.44327 3.85714,-13.50647 8.57143,-24.58488 4.71428,-11.07841 8.57143,-21.85504 8.57143,-23.94808 0,-2.18159 -3.86861,-4.18758 -9.06569,-4.70083 -13.3638,-1.31979 -13.06834,-6.97294 1.07259,-20.52233 21.04897,-20.16846 86.84057,-50.37298 109.72262,-50.37298 4.24519,0 6.8419,-1.66391 6.8419,-4.38412 0,-5.21033 -14.66022,-3.97799 -55.49488,4.66489 -14.02218,2.96787 -26.11795,4.77306 -26.87949,4.01152 -1.63339,-1.63339 31.36748,-16.93208 53.80295,-24.9422 19.57596,-6.9892 60.65572,-9.62116 86.6999,-5.55482 20.38083,3.18211 38.51403,10.95547 50.08223,21.46931 11.01169,10.00806 38.20548,44.9859 36.3878,46.80358 -0.92059,0.92059 -14.72931,-0.61946 -30.68604,-3.42234 -50.96079,-8.95152 -93.15319,-3.34806 -138.93935,18.45218 -29.0467,13.83005 -42.97086,23.30665 -74.01307,50.37233 -13.31072,11.6056 -24.75774,21.1011 -25.43782,21.1011 -0.68008,0 -1.23651,-1.99905 -1.23651,-4.44233 z"
       id="path3774"
       inkscape:connector-curvature="0"
       transform="translate(-115.12656,48.62333)" />
    <path
       style="fill:#000000;stroke:#339fd2;stroke-width:3.10571432;stroke-miterlimit:4;stroke-opacity:0.37610623;stroke-dasharray:none"
       d="m 615.88525,361.94715 c -33.46179,-8.11299 -46.72085,-26.9788 -32.06004,-45.617 10.99755,-13.98113 45.33578,-27.34442 70.44421,-27.41454 16.7012,-0.0466 15.23483,4.38424 -2.85715,8.63336 -19.08548,4.48247 -50.71428,16.93702 -50.71428,19.96989 0,5.32974 8.02708,4.39379 21.42857,-2.49855 12.49053,-6.42383 18.61301,-7.48564 48.72144,-8.44968 25.90755,-0.82953 38.26009,0.0331 49.87803,3.48328 17.11311,5.08205 37.8448,18.06639 36.29062,22.72896 -0.55033,1.65098 -7.98288,5.54417 -16.51677,8.65153 -17.26458,6.28639 -67.517,8.0005 -109.37407,3.73077 -17.90456,-1.8264 -22.18009,-1.53821 -21.1939,1.42857 0.73453,2.20969 8.66989,4.57813 19.57218,5.84163 31.28866,3.62613 36.90818,5.06236 36.90818,9.43294 0,5.29134 -28.84259,5.33635 -50.52702,0.0788 l 0,-1e-5 z"
       id="path3776"
       inkscape:connector-curvature="0"
       transform="translate(-115.12656,48.62333)" />
    <path
       style="fill:#000000;stroke:#339fd2;stroke-width:3.10571432;stroke-miterlimit:4;stroke-opacity:0.37610623;stroke-dasharray:none"
       d="m 683.55513,365.21684 c 0,-6.1968 1.58018,-6.68995 31.69077,-9.89013 34.76835,-3.69522 49.10234,-9.48338 50.69121,-20.46947 2.30237,-15.91944 -31.87198,-37.38891 -63.09626,-39.63918 -16.52996,-1.19129 -19.28572,-2.16293 -19.28572,-6.79984 0,-4.96189 1.59726,-5.25255 19.28572,-3.50944 29.74966,2.93169 46.63925,10.52882 68.97373,31.02516 23.33885,21.41804 33.04634,24.6847 47.68633,16.04689 12.31849,-7.26809 14.86473,-7.53225 9.21734,-0.95628 -8.26065,9.61894 -8.29371,11.81174 -0.24788,16.44122 l 7.9419,4.56969 -7.59171,-1.5647 c -4.17544,-0.86058 -9.63973,-2.35059 -12.14285,-3.31113 -8.41895,-3.23066 -4.64482,3.49313 4.73456,8.43486 7.27127,3.83101 7.73614,4.49779 2.14286,3.07355 -20.38988,-5.19196 -45.53762,-4.60236 -65.35939,1.53239 -20.69776,6.40586 -49.01198,11.37985 -65.35489,11.48096 -7.78106,0.0481 -9.28572,-0.99937 -9.28572,-6.46455 z"
       id="path3778"
       inkscape:connector-curvature="0"
       transform="translate(-115.12656,48.62333)" />
    <path
       style="fill:#000000;stroke:#339fd2;stroke-width:0.54901791;stroke-miterlimit:4;stroke-opacity:0.37610623;stroke-dasharray:none"
       d="m 661.1632,711.31582 c 0,-0.59503 2.12519,-4.53444 3.69887,-6.85649 0.84718,-1.25007 4.52655,-5.34119 8.17638,-9.09138 15.67872,-16.10983 40.8294,-47.39317 54.20943,-67.42768 5.44212,-8.14873 10.98524,-18.29979 10.60836,-19.42698 -0.21141,-0.63229 -7.82067,3.89877 -21.07814,12.55133 -13.16834,8.59438 -17.36344,11.06224 -25.38273,14.93196 -7.63005,3.68189 -16.48945,6.74246 -24.05609,8.31041 -6.17044,1.27865 -16.8373,2.57364 -21.199,2.57364 -2.75038,0 -3.15982,-0.12244 -3.15982,-0.94491 0,-0.78483 0.5348,-1.00455 3.15672,-1.29691 16.91119,-1.88571 48.24197,-15.48055 72.19155,-31.32486 19.98407,-13.22085 25.86717,-18.01727 34.85769,-28.41907 10.16988,-11.76629 16.73446,-21.73508 33.85012,-51.40387 5.89379,-10.21646 15.25129,-28.49685 14.81197,-28.93612 -0.43659,-0.4366 -8.9254,1.93047 -11.37542,3.17198 -3.02408,1.53241 -4.7405,3.24363 -8.22704,8.20207 -3.69623,5.25667 -36.043,46.1437 -43.94075,55.54208 -18.32507,21.80698 -29.85799,29.62064 -48.23367,32.67876 -10.90415,1.8147 -17.3387,1.97791 -63.91347,1.62123 l -45.3591,-0.34737 0.15478,2.41948 0.15477,2.41948 6.38323,0.14094 6.38322,0.14093 -0.39812,1.76523 c -0.21897,0.97087 -0.28767,2.1876 -0.15267,2.70385 0.21022,0.80387 -0.21396,1.01805 -2.95464,1.49188 -21.85212,3.77798 -52.5159,5.67357 -92.09353,5.69309 -39.24451,0.0193 -71.67006,-1.95657 -92.96595,-5.66509 -3.02462,-0.52671 -3.19824,-0.63244 -3.11853,-1.89907 0.0464,-0.73772 -0.0807,-1.95953 -0.28244,-2.71513 l -0.36683,-1.37382 6.44555,-0.14141 6.44554,-0.1414 0.1537,-2.39318 0.1537,-2.39317 -49.65117,0.12033 c -45.56326,0.11042 -50.15019,0.0457 -55.71209,-0.78676 -8.21686,-1.22977 -13.72453,-2.57276 -18.21153,-4.4407 l -3.75929,-1.565 0,-22.95161 c 0,-22.33082 0.0258,-22.93782 0.95236,-22.44192 0.5238,0.28033 4.84035,4.52964 9.59235,9.44293 l 8.63999,8.93324 24.37403,-0.32559 c 36.26414,-0.48444 48.93579,-1.59024 62.47191,-5.45165 9.58569,-2.73448 16.50102,-6.22421 24.75423,-12.49187 4.98082,-3.78254 14.19116,-12.96519 20.89285,-20.83003 l 5.41875,-6.35923 8.19861,1.69042 c 4.50924,0.92973 14.67622,3.10452 22.59329,4.83285 14.25495,3.11193 14.46822,3.1419 21.97082,3.08761 7.49361,-0.0542 7.82975,-0.10685 30.85632,-4.83098 l 23.28018,-4.77617 1.21602,1.79287 c 5.24692,7.73589 19.00997,22.10887 26.27846,27.44302 8.07098,5.92307 12.1418,7.92373 19.8088,9.73533 15.7666,3.72541 49.01835,6.31305 81.20167,6.31907 l 9.90535,0.002 4.67803,-5.17703 c 2.57291,-2.84737 14.27102,-14.72297 25.99579,-26.39023 17.73973,-17.65288 30.58021,-31.17861 30.58021,-32.21234 0,-0.12181 -2.55695,-0.38213 -5.68211,-0.57848 -22.75138,-1.42945 -63.06742,-10.18945 -83.71639,-18.19017 -16.19009,-6.27306 -29.30514,-16.70297 -27.49069,-21.86231 0.79566,-2.26246 3.48765,-2.96895 8.74275,-2.29448 5.89195,0.75621 12.59471,3.15377 24.17743,8.64823 27.51016,13.04992 47.53782,19.36047 71.84718,22.63845 5.30185,0.71493 10.13275,0.91897 21.71828,0.91732 13.09874,-0.002 15.84604,-0.14614 22.72843,-1.19348 18.8602,-2.87007 35.33736,-8.30102 52.40166,-17.27184 3.68075,-1.93499 6.69226,-3.38484 6.69226,-3.2219 0,0.16295 -0.55078,1.24587 -1.22395,2.40651 -1.95075,3.36332 -4.54114,10.0188 -8.85348,22.74733 -6.44543,19.0246 -12.1186,30.82132 -23.87677,49.64933 -12.24745,19.61145 -34.00035,49.00173 -48.7589,65.87803 -5.49686,6.28563 -35.41014,38.28171 -44.50958,47.60871 -14.8682,15.24001 -54.0997,49.75068 -54.0997,47.58974 z M 552.5718,610.21323 c 0,-0.54057 -5.65634,-8.34446 -8.52817,-11.76608 -1.54038,-1.83526 -6.10427,-6.86679 -10.14197,-11.18117 -4.03771,-4.31438 -9.65747,-10.48564 -12.48837,-13.7139 -12.33305,-14.06425 -22.14709,-19.24985 -29.47157,-15.5724 -8.89313,4.46502 -31.44208,26.77411 -43.37609,42.91465 -2.72082,3.67986 -5.59538,8.48407 -5.59538,9.35148 0,0.14813 24.66035,0.26933 54.80078,0.26933 30.14042,0 54.80077,-0.13586 54.80077,-0.30191 z"
       id="path3780"
       inkscape:connector-curvature="0"
       transform="translate(-115.12656,48.62333)" />
    <path
       style="fill:#000000;stroke:#339fd2;stroke-width:0.54901791;stroke-miterlimit:4;stroke-opacity:0.37610623;stroke-dasharray:none"
       d="m 485.60329,843.22903 c -2.6158,-3.63451 -6.76822,-12.13234 -9.1934,-18.81409 -7.39196,-20.36598 -13.28533,-52.23792 -14.05556,-76.01398 -0.35045,-10.81769 0.11986,-13.86292 4.01725,-26.01143 2.90109,-9.04292 3.31956,-11.46848 3.85725,-22.35724 0.57375,-11.61911 0.95456,-10.65309 -8.82501,-22.38664 -2.22328,-2.66749 -4.79308,-6.30565 -5.71067,-8.08479 l -1.66834,-3.23479 43.79903,-0.12908 c 24.08947,-0.071 43.90208,-0.026 44.02802,0.0999 0.40346,0.40347 -1.96477,4.80987 -3.90007,7.25655 -1.03064,1.30299 -3.72966,4.37146 -5.9978,6.81883 -10.41962,11.24294 -10.55742,14.32842 -2.27129,50.85609 4.32596,19.07012 4.26952,23.73303 -0.60838,50.25509 -3.45862,18.80515 -7.18376,36.92111 -8.62019,41.92133 -2.16856,7.54878 -5.54586,13.95922 -10.7104,20.32932 l -1.74032,2.14657 -10.24585,0 -10.24584,0 -1.90843,-2.65165 0,0 z"
       id="path3782"
       inkscape:connector-curvature="0"
       transform="translate(-115.12656,48.62333)" />
    <path
       style="fill:#000000;stroke:#339fd2;stroke-width:0.54901791;stroke-miterlimit:4;stroke-opacity:0.37610623;stroke-dasharray:none"
       d="m 485.6492,524.60162 c -15.72646,-1.28993 -28.09616,-4.46867 -36.61803,-9.41002 -4.97443,-2.88439 -10.56037,-8.67728 -12.79387,-13.26786 -3.25395,-6.68795 -3.62399,-8.92135 -3.59833,-21.71828 0.0171,-8.54162 0.29702,-13.55957 1.12694,-20.20305 1.074,-8.59733 2.31443,-24.73594 1.93072,-25.11965 -0.37014,-0.37014 -6.5963,1.47659 -9.65675,2.86427 -4.97722,2.25677 -8.24882,4.58788 -16.48413,11.7454 -4.26207,3.70427 -10.24934,8.77533 -13.30505,11.26902 -8.47643,6.9174 -14.48219,13.09156 -16.21154,16.66609 -2.13305,4.40895 -2.06515,9.78657 0.23471,18.59185 0.92945,3.55851 1.56271,6.59723 1.40723,6.75271 -0.39514,0.39514 -5.06464,-3.10459 -6.63954,-4.97625 -1.9082,-2.26777 -2.69633,-4.50874 -3.31372,-9.4223 -0.54892,-4.3686 -0.50741,-4.87257 1.06865,-12.97458 0.59139,-3.04011 3.25244,-8.37902 6.41534,-12.87118 3.03138,-4.30538 7.21602,-9.02927 16.94214,-19.1254 22.04402,-22.88266 36.6808,-44.85019 44.37739,-66.60356 l 2.18635,-6.17944 8.96511,-0.008 8.9651,-0.008 -0.005,1.6415 c -0.003,0.90282 -1.35996,20.77748 -3.01687,44.1659 -2.98945,42.19821 -3.02601,42.57789 -4.76658,49.49747 -4.24402,16.87199 -4.9382,20.90927 -4.28868,24.94245 0.66119,4.10559 2.11995,7.06163 5.08669,10.30772 5.08845,5.56758 13.0523,9.08563 25.42503,11.23157 5.78268,1.00296 22.85043,1.12062 29.54696,0.20369 11.70366,-1.60252 22.76601,-4.60035 30.93592,-8.38344 l 3.91434,-1.81254 -0.0106,-8.1922 c -0.016,-12.52571 -1.13848,-28.29769 -4.28515,-60.21505 -2.52778,-25.63984 -3.64691,-41.78636 -3.91207,-56.44255 l -0.12565,-6.94507 9.09191,2.7e-4 9.09189,2.8e-4 1.96656,5.68211 c 5.22473,15.09615 12.53883,29.46994 19.93437,39.17534 4.61622,6.05802 8.4768,10.55876 19.7932,23.07531 16.84361,18.62994 21.66535,24.81075 25.98057,33.30353 3.03896,5.98095 4.02856,9.99411 3.67679,14.91058 -0.30776,4.30125 -2.08303,8.09194 -5.40423,11.5395 -2.85655,2.96523 -6.01631,5.39752 -6.44932,4.9645 -0.45441,-0.4544 0.66128,-5.04154 2.10654,-8.66097 0.66693,-1.67024 1.36481,-4.73857 1.55085,-6.81853 0.43925,-4.91106 -0.66974,-8.17321 -4.66695,-13.72813 -7.27821,-10.11449 -28.09171,-27.50088 -42.11064,-35.17675 -3.46959,-1.89973 -8.97363,-4.1218 -10.20963,-4.1218 -0.62059,0 -0.17136,5.45377 1.43532,17.42513 1.86558,13.90037 2.35469,22.58125 1.70412,30.24535 -0.70378,8.29116 -1.89415,13.01091 -4.7395,18.79194 -6.61094,13.43175 -20.35405,21.22843 -41.31073,23.43625 -5.4751,0.57681 -23.67721,0.54995 -30.93859,-0.0457 l 0,10e-6 z"
       id="path3784"
       inkscape:connector-curvature="0"
       transform="translate(-115.12656,48.62333)" />
    <path
       style="fill:#000000;stroke:#339fd2;stroke-width:0.54901791;stroke-miterlimit:4;stroke-opacity:0.37610623;stroke-dasharray:none"
       d="m 556.61241,522.99253 c 0,-1.22803 -0.14071,-3.57905 -0.31269,-5.22448 l -0.31269,-2.99169 5.74226,-3.09679 c 8.78349,-4.73692 15.13206,-6.30088 21.14855,-5.20988 1.71826,0.31158 3.88144,0.92766 4.80708,1.36906 l 1.68297,0.80256 -0.9882,2.50708 c -2.13107,5.40657 -5.08734,8.29201 -10.425,10.17525 -1.16088,0.40958 -6.04004,1.338 -10.84259,2.06315 -4.80256,0.72516 -9.12967,1.43548 -9.6158,1.5785 -0.74772,0.21997 -0.88389,-0.0839 -0.88389,-1.97276 z"
       id="path3786"
       inkscape:connector-curvature="0"
       transform="translate(-115.12656,48.62333)" />
    <path
       style="fill:#000000;stroke:#339fd2;stroke-width:0.54901791;stroke-miterlimit:4;stroke-opacity:0.37610623;stroke-dasharray:none"
       d="m 330.28641,709.41665 c -5.8702,-3.88173 -11.11236,-8.30771 -20.68474,-17.46424 -4.86136,-4.65016 -12.81631,-11.98221 -17.67767,-16.29344 -24.02617,-21.3073 -47.58409,-47.21625 -71.29052,-78.4052 -32.46645,-42.71389 -55.63852,-82.25291 -64.78087,-110.53702 -1.91311,-5.9187 -3.72123,-13.9936 -3.24096,-14.47387 0.16839,-0.1684 4.47891,2.50194 9.57892,5.93408 27.27462,18.35495 46.539,22.9138 78.72073,18.62901 29.10144,-3.87467 53.62545,-9.82 74.24621,-17.99943 6.2898,-2.49491 17.89899,-7.85772 22.98097,-10.61595 5.82317,-3.16051 11.43338,-5.28711 13.948,-5.28711 1.94782,0 2.40305,0.25573 4.57664,2.57089 2.70681,2.88312 3.66728,5.36811 2.8776,7.44512 -2.82243,7.42356 -20.67049,15.97757 -49.18143,23.5711 -21.72493,5.78615 -50.85633,10.85961 -62.35511,10.85961 -1.67875,0 -3.05227,0.12801 -3.05227,0.28446 0,0.15646 6.67399,7.71367 14.83108,16.79379 9.36922,10.42941 17.20279,18.63053 21.27119,22.26923 l 6.44011,5.75991 -0.31053,2.26553 c -0.17079,1.24605 -0.31052,11.55709 -0.31052,22.91344 l 0,20.6479 -1.96624,-1.0031 c -3.72294,-1.8993 -9.93533,-7.0115 -15.4705,-12.73072 -6.6238,-6.84404 -11.76152,-12.99131 -25.4751,-30.48089 -5.66324,-7.22259 -14.06429,-17.66307 -18.66901,-23.20107 -4.60472,-5.53799 -10.19686,-12.5838 -12.42699,-15.65736 -3.69649,-5.09449 -4.34361,-5.73315 -7.32361,-7.22783 -3.29874,-1.65455 -11.37005,-4.06464 -11.88564,-3.54905 -0.41425,0.41425 25.57144,49.23307 28.63371,53.79361 7.35135,10.94812 14.01773,18.84934 25.90582,30.70444 19.59971,19.5453 38.4828,33.37666 59.63822,43.68338 15.09042,7.35191 27.76726,11.10977 41.79507,12.38953 2.93593,0.26784 3.40926,0.44764 3.40926,1.29504 0,0.89755 -0.2774,0.96161 -3.15673,0.72899 -1.7362,-0.14027 -5.20228,-0.38891 -7.70241,-0.55256 -5.94064,-0.38884 -14.71967,-1.90148 -20.57379,-3.5449 -11.98832,-3.36548 -20.72932,-7.53708 -36.53476,-17.43604 -5.81442,-3.64157 -12.16266,-7.49549 -14.1072,-8.56425 -3.32687,-1.82852 -12.74627,-5.33223 -13.17706,-4.90144 -0.23964,0.23964 11.32059,17.43996 16.20714,24.11441 11.30677,15.44371 39.97433,50.68964 49.70774,61.11423 2.9828,3.1946 6.27104,6.92222 7.3072,8.28358 2.14459,2.81768 4.0699,6.36363 3.4552,6.36363 -0.22685,0 -2.10657,-1.12025 -4.17715,-2.48944 l 0,0 z"
       id="path3788"
       inkscape:connector-curvature="0"
       transform="translate(-115.12656,48.62333)" />
    <path
       style="fill:#000000;stroke:#339fd2;stroke-width:1.09803581;stroke-miterlimit:4;stroke-opacity:0.37610623;stroke-dasharray:none"
       d="m 328.29085,362.01768 0,-6.06541 7.9991,-0.61685 c 4.39949,-0.33926 13.60451,-1.57393 20.45558,-2.74369 6.85107,-1.16977 15.86576,-2.43692 20.03264,-2.81588 7.28788,-0.6628 7.58816,-0.79319 7.89191,-3.42683 0.31137,-2.69966 0.248,-2.73082 -4.54569,-2.23608 -2.67379,0.27596 -13.23124,1.39433 -23.46098,2.48528 -10.22973,1.09094 -24.09408,1.97867 -30.80965,1.97272 -20.86782,-0.0185 -55.64866,-4.48952 -75.84973,-9.75039 -11.84059,-3.08359 -15.65737,-4.81781 -15.65737,-7.11419 0,-5.18385 19.26155,-16.89604 36.05152,-21.9215 15.93933,-4.77085 27.76582,-5.96583 52.84191,-5.33929 26.57569,0.66402 32.95517,1.78513 48.96494,8.60491 6.09633,2.59689 11.49738,4.8931 12.00233,5.10269 2.02934,0.84228 -3.11746,-6.31893 -6.41903,-8.93139 -7.52929,-5.95774 -16.30515,-9.00205 -33.80752,-11.72765 -17.31833,-2.69695 -15.68996,-2.00347 -15.68996,-6.6819 l 0,-4.13989 6.89341,0.64067 c 19.24125,1.78829 50.96638,11.35638 64.37693,19.41565 10.49607,6.30778 15.2385,12.20442 19.2125,23.88848 l 2.45644,7.22222 -2.27546,2.45011 c -3.02211,3.25404 -13.3057,10.52626 -18.80856,13.30078 -13.44367,6.77826 -39.48069,12.79942 -59.98597,13.87199 l -11.86929,0.62085 0,-6.06541 z"
       id="path3790"
       inkscape:connector-curvature="0"
       transform="translate(-115.12656,48.62333)" />
    <path
       style="fill:#000000;stroke:#339fd2;stroke-width:1.09803581;stroke-miterlimit:4;stroke-opacity:0.37610623;stroke-dasharray:none"
       d="m 142.11313,373.69227 c 1.00369,-1.74556 4.21887,-4.71903 7.14487,-6.6077 5.67235,-3.6614 21.19236,-11.4505 26.50701,-13.30319 3.62134,-1.26241 3.61164,-2.65183 -0.0338,-4.83619 -2.36529,-1.41729 -3.03844,-1.20052 -12.60031,4.05764 -10.41896,5.72948 -15.65736,7.6983 -15.65736,5.88472 0,-1.48706 8.88644,-7.64059 18.17768,-12.58735 4.42597,-2.35644 8.05601,-4.517 8.06675,-4.80124 0.0107,-0.28425 -3.29929,-4.14808 -7.35563,-8.5863 -7.57245,-8.28534 -11.02861,-13.23763 -12.32892,-17.66594 -0.54434,-1.85378 1.64132,-0.21142 8.21858,6.17566 11.81479,11.47316 15.76326,13.53045 25.62764,13.35287 13.30776,-0.23957 17.03049,-2.31909 34.70218,-19.38464 11.81899,-11.4136 16.99322,-15.67197 22.65951,-18.6487 14.2674,-7.49523 28.27615,-11.0714 50.11371,-12.79308 20.49842,-1.61611 18.79367,-2.05921 18.79367,4.8849 l 0,5.91189 -8.41012,0.64645 c -40.50025,3.1131 -78.463,21.22515 -78.463,37.43474 0,8.14651 10.05397,14.33695 28.78934,17.72621 11.85144,2.14394 38.38774,5.10002 45.90405,5.1136 12.28684,0.0222 12.17973,-0.0542 12.17973,8.69032 l 0,7.45833 -6.31346,-0.004 c -10.26151,-0.007 -33.88765,-1.95892 -43.901,-3.6276 -9.61944,-1.60304 -16.82889,-3.69374 -34.13328,-9.89844 -9.7895,-3.51015 -10.53837,-3.62126 -24.24366,-3.59698 -15.49173,0.0274 -26.99701,1.65082 -34.16182,4.82015 -2.55047,1.1282 -10.31811,5.49523 -17.2614,9.70452 -6.9433,4.20929 -12.89906,7.65326 -13.23501,7.65326 -0.33596,0 0.21036,-1.42819 1.21404,-3.17376 z"
       id="path3792"
       inkscape:connector-curvature="0"
       transform="translate(-115.12656,48.62333)" />
    <path
       style="fill:#000000;stroke:#339fd2;stroke-width:1.09803581;stroke-miterlimit:4;stroke-opacity:0.37610623;stroke-dasharray:none"
       d="m 424.81071,522.71729 c -11.90859,-2.1497 -16.18955,-5.43115 -18.17044,-13.92801 l -0.68356,-2.93211 8.25062,0.63625 c 13.87101,1.06965 21.41199,5.89243 23.57456,15.07696 0.59618,2.53201 0.40647,2.7699 -2.14309,2.68727 -1.53844,-0.0499 -6.41108,-0.74302 -10.82809,-1.54036 l 0,0 z"
       id="path3794"
       inkscape:connector-curvature="0"
       transform="translate(-115.12656,48.62333)" />
    <path
       style="fill:#000000;stroke:#339fd2;stroke-width:1.09803581;stroke-miterlimit:4;stroke-opacity:0.37610623;stroke-dasharray:none"
       d="m 443.44824,369.03068 c 0,-0.42036 0.4761,-2.35228 1.058,-4.29315 2.45305,-8.1819 4.07659,-20.71155 4.67765,-36.09963 l 0.64092,-16.40832 3.2288,-1.90504 3.2288,-1.90504 0.65167,17.30321 c 0.35842,9.51677 1.32472,22.07618 2.14732,27.90981 0.82261,5.83363 1.5055,11.85667 1.51754,13.38452 l 0.0219,2.77792 -8.58629,0 c -4.72247,0 -8.5863,-0.34393 -8.5863,-0.76428 z"
       id="path3796"
       inkscape:connector-curvature="0"
       transform="translate(-115.12656,48.62333)" />
    <path
       style="fill:#000000;stroke:#339fd2;stroke-width:0.77642858;stroke-miterlimit:4;stroke-opacity:0.37610623;stroke-dasharray:none"
       d="m 535.53214,362.92075 c 0,-4.04568 0.80357,-15.00724 1.78572,-24.35903 0.98214,-9.35179 1.78571,-20.0284 1.78571,-23.72579 l 0,-6.72253 2.90388,1.9217 c 4.64498,3.0739 4.90319,4.0721 4.79539,18.53821 -0.10218,13.71125 1.01676,22.06501 4.74875,35.45322 l 1.7422,6.25 -8.88082,0 -8.88083,0 0,-7.35578 z"
       id="path3798"
       inkscape:connector-curvature="0"
       transform="translate(-115.12656,48.62333)" />
  </g>
</svg>
